<mxfile host="app.diagrams.net" modified="2021-01-04T01:36:45.011Z" agent="5.0 (Macintosh; Intel Mac OS X 11_0_1) AppleWebKit/537.36 (KHTML, like Gecko) Chrome/87.0.4280.88 Safari/537.36" etag="vqid42cDHoLsGNyNLsif" version="14.1.3" type="github">
  <diagram id="TJ0MvlFu211iMS5DlSZk" name="第 1 页">
    <mxGraphModel dx="983" dy="492" grid="1" gridSize="10" guides="1" tooltips="1" connect="1" arrows="1" fold="1" page="1" pageScale="1" pageWidth="827" pageHeight="1169" math="0" shadow="0">
      <root>
        <mxCell id="0" />
        <mxCell id="1" parent="0" />
        <mxCell id="RyPzpNZju9PGMErpAM3B-1" value="" style="rounded=1;whiteSpace=wrap;html=1;dashed=1;fillColor=none;" parent="1" vertex="1">
          <mxGeometry x="198" y="330" width="210" height="130" as="geometry" />
        </mxCell>
        <mxCell id="RyPzpNZju9PGMErpAM3B-17" style="edgeStyle=orthogonalEdgeStyle;rounded=0;orthogonalLoop=1;jettySize=auto;html=1;entryX=0.5;entryY=0;entryDx=0;entryDy=0;exitX=0.5;exitY=1;exitDx=0;exitDy=0;" parent="1" source="FF6pFC71sTOxQedzVuBi-1" target="RyPzpNZju9PGMErpAM3B-7" edge="1">
          <mxGeometry relative="1" as="geometry">
            <Array as="points">
              <mxPoint x="420" y="350" />
              <mxPoint x="500" y="350" />
            </Array>
          </mxGeometry>
        </mxCell>
        <mxCell id="FF6pFC71sTOxQedzVuBi-3" style="edgeStyle=orthogonalEdgeStyle;rounded=0;orthogonalLoop=1;jettySize=auto;html=1;entryX=0.5;entryY=0;entryDx=0;entryDy=0;" edge="1" parent="1" source="RyPzpNZju9PGMErpAM3B-5" target="FF6pFC71sTOxQedzVuBi-1">
          <mxGeometry relative="1" as="geometry" />
        </mxCell>
        <mxCell id="RyPzpNZju9PGMErpAM3B-5" value="mccs-在线定制" style="rounded=0;whiteSpace=wrap;html=1;fillColor=none;" parent="1" vertex="1">
          <mxGeometry x="280" y="190" width="280" height="40" as="geometry" />
        </mxCell>
        <mxCell id="RyPzpNZju9PGMErpAM3B-22" style="edgeStyle=orthogonalEdgeStyle;rounded=0;orthogonalLoop=1;jettySize=auto;html=1;entryX=0.5;entryY=0;entryDx=0;entryDy=0;" parent="1" source="RyPzpNZju9PGMErpAM3B-6" target="RyPzpNZju9PGMErpAM3B-8" edge="1">
          <mxGeometry relative="1" as="geometry" />
        </mxCell>
        <mxCell id="RyPzpNZju9PGMErpAM3B-6" value="podfile/Xcode-setting" style="rounded=0;whiteSpace=wrap;html=1;fillColor=none;" parent="1" vertex="1">
          <mxGeometry x="280" y="400" width="120" height="40" as="geometry" />
        </mxCell>
        <mxCell id="RyPzpNZju9PGMErpAM3B-21" style="edgeStyle=orthogonalEdgeStyle;rounded=0;orthogonalLoop=1;jettySize=auto;html=1;entryX=0.5;entryY=0;entryDx=0;entryDy=0;" parent="1" source="RyPzpNZju9PGMErpAM3B-7" target="RyPzpNZju9PGMErpAM3B-9" edge="1">
          <mxGeometry relative="1" as="geometry" />
        </mxCell>
        <mxCell id="RyPzpNZju9PGMErpAM3B-7" value="maven" style="rounded=0;whiteSpace=wrap;html=1;fillColor=none;" parent="1" vertex="1">
          <mxGeometry x="440" y="400" width="120" height="40" as="geometry" />
        </mxCell>
        <mxCell id="RyPzpNZju9PGMErpAM3B-23" style="edgeStyle=orthogonalEdgeStyle;rounded=0;orthogonalLoop=1;jettySize=auto;html=1;entryX=0.214;entryY=0;entryDx=0;entryDy=0;entryPerimeter=0;" parent="1" source="RyPzpNZju9PGMErpAM3B-8" target="RyPzpNZju9PGMErpAM3B-10" edge="1">
          <mxGeometry relative="1" as="geometry" />
        </mxCell>
        <mxCell id="RyPzpNZju9PGMErpAM3B-8" value="pod install" style="rounded=0;whiteSpace=wrap;html=1;fillColor=none;" parent="1" vertex="1">
          <mxGeometry x="280" y="480" width="120" height="40" as="geometry" />
        </mxCell>
        <mxCell id="RyPzpNZju9PGMErpAM3B-25" style="edgeStyle=orthogonalEdgeStyle;rounded=0;orthogonalLoop=1;jettySize=auto;html=1;entryX=0.786;entryY=0.012;entryDx=0;entryDy=0;entryPerimeter=0;" parent="1" source="RyPzpNZju9PGMErpAM3B-9" target="RyPzpNZju9PGMErpAM3B-10" edge="1">
          <mxGeometry relative="1" as="geometry" />
        </mxCell>
        <mxCell id="RyPzpNZju9PGMErpAM3B-9" value="gradle sync" style="rounded=0;whiteSpace=wrap;html=1;fillColor=none;" parent="1" vertex="1">
          <mxGeometry x="440" y="480" width="120" height="40" as="geometry" />
        </mxCell>
        <mxCell id="RyPzpNZju9PGMErpAM3B-26" style="edgeStyle=orthogonalEdgeStyle;rounded=0;orthogonalLoop=1;jettySize=auto;html=1;entryX=0.5;entryY=0;entryDx=0;entryDy=0;" parent="1" source="RyPzpNZju9PGMErpAM3B-10" target="RyPzpNZju9PGMErpAM3B-11" edge="1">
          <mxGeometry relative="1" as="geometry" />
        </mxCell>
        <mxCell id="RyPzpNZju9PGMErpAM3B-10" value="CI" style="rounded=0;whiteSpace=wrap;html=1;fillColor=none;" parent="1" vertex="1">
          <mxGeometry x="280" y="560" width="280" height="40" as="geometry" />
        </mxCell>
        <mxCell id="RyPzpNZju9PGMErpAM3B-11" value="mccs 发布" style="rounded=0;whiteSpace=wrap;html=1;fillColor=none;" parent="1" vertex="1">
          <mxGeometry x="280" y="640" width="280" height="40" as="geometry" />
        </mxCell>
        <mxCell id="RyPzpNZju9PGMErpAM3B-14" value="xcode 模版" style="text;html=1;align=center;verticalAlign=middle;resizable=0;points=[];autosize=1;" parent="1" vertex="1">
          <mxGeometry x="200" y="340" width="70" height="20" as="geometry" />
        </mxCell>
        <mxCell id="FF6pFC71sTOxQedzVuBi-2" style="edgeStyle=orthogonalEdgeStyle;rounded=0;orthogonalLoop=1;jettySize=auto;html=1;entryX=0.5;entryY=0;entryDx=0;entryDy=0;" edge="1" parent="1" source="FF6pFC71sTOxQedzVuBi-1" target="RyPzpNZju9PGMErpAM3B-6">
          <mxGeometry relative="1" as="geometry" />
        </mxCell>
        <mxCell id="FF6pFC71sTOxQedzVuBi-1" value="模块选择" style="rounded=0;whiteSpace=wrap;html=1;" vertex="1" parent="1">
          <mxGeometry x="360" y="260" width="120" height="40" as="geometry" />
        </mxCell>
      </root>
    </mxGraphModel>
  </diagram>
</mxfile>
